<?xml version="1.0" encoding="UTF-8"?>
<svg width="25px" height="25px" viewBox="0 0 25 25" version="1.1" xmlns="http://www.w3.org/2000/svg" xmlns:xlink="http://www.w3.org/1999/xlink">
    <defs>
        <linearGradient x1="50%" y1="0%" x2="50%" y2="100%" id="linearGradient-1">
            <stop stop-color="#FFFFFF" offset="0%"></stop>
            <stop stop-color="#D6FFFC" offset="100%"></stop>
        </linearGradient>
    </defs>
    <g stroke="none" stroke-width="1" fill="none" fill-rule="evenodd">
        <g transform="translate(-66, -163)" fill-rule="nonzero">
            <g transform="translate(66, 163)">
                <path d="M0,12.5 C0,19.4035594 5.59644063,25 12.5,25 C19.4035594,25 25,19.4035594 25,12.5 C25,5.59644063 19.4035594,0 12.5,0 C5.59644063,0 0,5.59644063 0,12.5 Z" id="路径" fill="#000000"></path>
                <path d="M12.8116162,5.08441792 C12.619014,4.97186069 12.3817183,4.97186069 12.1891161,5.08441792 L6.31125007,8.51885505 C6.1186754,8.63139617 6,8.83936868 6,9.06445093 L6,15.9348078 C6,16.15989 6.1186754,16.3678625 6.31125007,16.4804037 L12.1891161,19.9155821 C12.3817183,20.0281393 12.619014,20.0281393 12.8116162,19.9155821 L12.8544252,19.8905576 C12.9771336,19.8188269 13.0525604,19.6873668 13.0525604,19.5452308 L13.0525604,18.4911622 C13.0525604,18.4906581 13.0521517,18.4902495 13.0516476,18.4902495 C13.0514483,18.4902495 13.0512544,18.4903147 13.0510957,18.4904352 C13.0506941,18.49074 13.0501215,18.4906617 13.0498167,18.4902601 C13.0496962,18.4901014 13.049631,18.4899075 13.049631,18.4897082 L13.049631,13.0486636 C13.049631,12.9065115 13.1250746,12.775039 13.247805,12.7033141 L17.2996442,10.3353751 C17.4903755,10.2239096 17.7353543,10.2881673 17.8468197,10.4788985 C17.882609,10.5401384 17.9014703,10.6097936 17.9014703,10.6807245 L17.9014703,15.4265331 C17.9014703,15.5686916 17.8260199,15.7001689 17.7032809,15.7718916 L13.9831029,17.9457817 C13.8603638,18.0175044 13.7849135,18.1489818 13.7849135,18.2911402 L13.7849135,18.7035586 C13.7849135,18.9070258 13.9498562,19.0719685 14.1533234,19.0719685 C14.2186445,19.0719685 14.2827911,19.0546011 14.3391897,19.021646 L18.6894822,16.4796624 L18.6894822,16.4796624 C18.881775,16.366933 19,16.1589959 19,15.9340665 L19,9.06445093 C19,8.83952146 18.881775,8.63158438 18.6894822,8.51885505 L12.8116162,5.08441792 L12.8116162,5.08441792 L12.8116162,5.08441792 Z M8.57166196,8.65700282 L12.7942017,6.12347898 C12.9208747,6.04747521 13.0791253,6.04747521 13.2057983,6.12347898 L17.428338,8.65700282 C17.6177702,8.77066209 17.6791962,9.0163662 17.5655369,9.20579831 C17.531757,9.26209815 17.4846379,9.30921727 17.428338,9.34299718 L13.2057983,11.876521 C13.0791253,11.9525248 12.9208747,11.9525248 12.7942017,11.876521 L8.57166196,9.34299718 C8.38222985,9.22933791 8.32080382,8.9836338 8.43446309,8.79420169 C8.46824299,8.73790185 8.51536212,8.69078273 8.57166196,8.65700282 Z M7.60577194,10.3633998 L11.8057719,12.8829607 C11.9262691,12.9552464 12,13.0854576 12,13.2259737 L12,18.2935872 C12,18.5145011 11.8209139,18.6935872 11.6,18.6935872 C11.5275129,18.6935872 11.4563881,18.6738897 11.3942281,18.6366002 L7.19422807,16.1170393 C7.07373095,16.0447536 7,15.9145424 7,15.7740263 L7,10.7064128 C7,10.4854989 7.1790861,10.3064128 7.40000001,10.3064128 C7.47248714,10.3064128 7.54361186,10.3261103 7.60577194,10.3633998 Z" id="形状" fill="url(#linearGradient-1)"></path>
            </g>
        </g>
    </g>
</svg>